{
	"asset":{
		"generator":"Khronos glTF Blender I/O v4.3.47",
		"version":"2.0"
	},
	"scene":0,
	"scenes":[
		{
			"name":"Scene",
			"nodes":[
				0
			]
		}
	],
	"nodes":[
		{
			"mesh":0,
			"name":"vikingRoomRoot"
		}
	],
	"materials":[
		{
			"doubleSided":true,
			"name":"baseColor",
			"pbrMetallicRoughness":{
				"baseColorTexture":{
					"index":0
				},
				"metallicFactor":0
			}
		}
	],
	"meshes":[
		{
			"name":"mesh",
			"primitives":[
				{
					"attributes":{
						"POSITION":0,
						"NORMAL":1,
						"TEXCOORD_0":2
					},
					"indices":3,
					"material":0
				}
			]
		}
	],
	"textures":[
		{
			"sampler":0,
			"source":0
		}
	],
	"images":[
		{
			"mimeType":"image/png",
			"name":"Texture1_baseColor",
			"uri":"Texture1_baseColor.png"
		}
	],
	"accessors":[
		{
			"bufferView":0,
			"componentType":5126,
			"count":4731,
			"max":[
				13.323686599731445,
				16.662933349609375,
				13.366377830505371
			],
			"min":[
				-12.990525245666504,
				-1.939388632774353,
				-10.545746803283691
			],
			"type":"VEC3"
		},
		{
			"bufferView":1,
			"componentType":5126,
			"count":4731,
			"type":"VEC3"
		},
		{
			"bufferView":2,
			"componentType":5126,
			"count":4731,
			"type":"VEC2"
		},
		{
			"bufferView":3,
			"componentType":5123,
			"count":11484,
			"type":"SCALAR"
		}
	],
	"bufferViews":[
		{
			"buffer":0,
			"byteLength":56772,
			"byteOffset":0,
			"target":34962
		},
		{
			"buffer":0,
			"byteLength":56772,
			"byteOffset":56772,
			"target":34962
		},
		{
			"buffer":0,
			"byteLength":37848,
			"byteOffset":113544,
			"target":34962
		},
		{
			"buffer":0,
			"byteLength":22968,
			"byteOffset":151392,
			"target":34963
		}
	],
	"samplers":[
		{
			"magFilter":9729,
			"minFilter":9987
		}
	],
	"buffers":[
		{
			"byteLength":174360,
			"uri":"scene.bin"
		}
	]
}
